<svg version="1.1" id="Layer_1" xmlns="http://www.w3.org/2000/svg" xmlns:xlink="http://www.w3.org/1999/xlink" x="0px" y="0px"
	 width="100%" viewBox="0 0 224 192" enable-background="new 0 0 224 192" xml:space="preserve">
<path fill="#000000" opacity="1.000000" stroke="none"
	d="
M76.419312,148.419556 
	C71.573181,153.256851 67.016869,157.885101 62.364235,162.414413 
	C59.473274,165.228760 56.243153,166.684952 52.720158,163.440506 
	C49.785782,160.738129 50.020084,156.882675 53.507832,153.378448 
	C59.116184,147.743637 64.897430,142.280914 71.015160,136.348328 
	C62.645035,130.112030 55.145073,124.407486 48.540600,117.603806 
	C44.362682,113.299866 40.372799,108.852921 36.441566,104.337181 
	C33.876095,101.390274 33.683914,98.145943 36.059620,95.255959 
	C54.659340,72.629906 77.166824,55.891064 106.717110,51.029312 
	C119.618950,48.906635 132.657028,50.251507 144.889816,55.444088 
	C148.630203,57.031803 150.974411,56.410728 153.621948,53.590279 
	C158.518936,48.373444 163.719803,43.441673 168.799149,38.396244 
	C173.078903,34.145065 177.236725,33.385201 179.945572,36.348099 
	C182.550705,39.197548 181.750900,43.192829 177.737915,47.202259 
	C144.050339,80.859978 110.358788,114.513733 76.419312,148.419556 
M92.707382,67.287201 
	C77.305008,73.457481 64.411919,83.204254 52.924961,95.013786 
	C49.829441,98.196236 49.316444,100.672920 52.949131,104.081055 
	C58.403904,109.198654 63.399055,114.818703 69.453140,119.274994 
	C82.741394,129.056229 78.657166,127.727165 89.836662,117.245186 
	C91.548416,115.640221 91.692657,114.075554 90.731224,111.920731 
	C88.757683,107.497498 87.352600,102.831879 87.819405,97.922668 
	C89.759521,77.518738 109.390656,65.939774 128.363571,74.069466 
	C130.755920,75.094551 132.357452,75.026917 134.052322,73.118729 
	C135.767654,71.187508 137.627441,69.384583 139.877686,67.055908 
	C123.790993,60.864639 108.627014,61.625690 92.707382,67.287201 
M108.821587,98.325333 
	C113.097809,94.491570 117.374039,90.657806 122.017120,86.495140 
	C115.758774,83.284454 110.051956,84.254486 105.723358,88.269699 
	C101.099991,92.558334 99.888580,98.060982 102.328590,103.922028 
	C104.780609,102.739128 106.428955,100.632355 108.821587,98.325333 
z"/>
<path fill="#000000" opacity="1.000000" stroke="none"
	d="
M115.002029,149.316986 
	C110.502312,149.501419 106.553322,148.976288 102.601158,148.333252 
	C97.113808,147.440399 94.486237,145.016876 94.904419,141.032562 
	C95.325157,137.024002 98.211555,134.933426 103.995529,135.809616 
	C114.559319,137.409912 124.879539,136.911560 135.040283,133.703354 
	C154.521103,127.552376 169.807663,115.336739 183.558243,100.267838 
	C178.613525,93.160843 172.393707,87.722420 166.232010,82.229195 
	C165.241257,81.345924 164.103699,80.571556 163.307953,79.536278 
	C161.280197,76.898247 160.826981,74.028503 163.119568,71.328911 
	C165.282776,68.781662 168.204102,68.687042 170.828918,70.227043 
	C173.235153,71.638802 175.371475,73.588837 177.416107,75.524216 
	C183.944168,81.703476 190.346939,88.006897 195.959457,95.065758 
	C198.506927,98.269714 198.682068,101.466698 196.088120,104.589462 
	C178.682800,125.543175 158.198990,141.868637 130.807373,147.713242 
	C125.760399,148.790115 120.677788,149.583649 115.002029,149.316986 
z"/>
</svg>